HIERARCHY
ROOT Hips
{
	OFFSET 0.000000 0.000000 0.000000
	CHANNELS 6 Xposition Yposition Zposition Zrotation Yrotation Xrotation 
	JOINT LowerBack
	{
		OFFSET 0.000000 0.000000 0.000000
		CHANNELS 3 Zrotation Yrotation Xrotation
		JOINT Spine
		{
			OFFSET 0.028270 2.035590 -0.193380
			CHANNELS 3 Zrotation Yrotation Xrotation
			JOINT Spine1
			{
				OFFSET 0.056720 2.048850 -0.042750
				CHANNELS 3 Zrotation Yrotation Xrotation
				JOINT Neck
				{
					OFFSET 0.000000 0.000000 0.000000
					CHANNELS 3 Zrotation Yrotation Xrotation
					JOINT Neck1
					{
						OFFSET -0.054170 1.746240 0.172020
						CHANNELS 3 Zrotation Yrotation Xrotation
						JOINT Head
						{
							OFFSET 0.104070 1.761360 -0.123970
							CHANNELS 3 Zrotation Yrotation Xrotation
							End Site
							{
								OFFSET 0.000000 0.000000 0.000000
							}
						}
					}
				}
				JOINT LeftShoulder
				{
					OFFSET 0.000000 0.000000 0.000000
					CHANNELS 3 Zrotation Yrotation Xrotation
					JOINT LeftArm
					{
						OFFSET 3.362410 1.200890 -0.311210
						CHANNELS 3 Zrotation Yrotation Xrotation
						JOINT LeftForeArm
						{
							OFFSET 4.983000 -0.000000 -0.000000
							CHANNELS 3 Zrotation Yrotation Xrotation
							JOINT LeftHand
							{
								OFFSET 3.483560 -0.000000 -0.000000
								CHANNELS 3 Zrotation Yrotation Xrotation
								JOINT LeftFingerBase
								{
									OFFSET 0.000000 0.000000 0.000000
									CHANNELS 3 Zrotation Yrotation Xrotation
									JOINT LeftHandIndex1
									{
										OFFSET 0.715260 -0.000000 -0.000000
										CHANNELS 3 Zrotation Yrotation Xrotation
										End Site
										{
											OFFSET 0.000000 0.000000 0.000000
										}
									}
								}
								JOINT LThumb
								{
									OFFSET 0.000000 0.000000 0.000000
									CHANNELS 3 Zrotation Yrotation Xrotation
									End Site
									{
										OFFSET 0.000000 0.000000 0.000000
									}
								}
							}
						}
					}
				}
				JOINT RightShoulder
				{
					OFFSET 0.000000 0.000000 0.000000
					CHANNELS 3 Zrotation Yrotation Xrotation
					JOINT RightArm
					{
						OFFSET -3.136600 1.374050 -0.404650
						CHANNELS 3 Zrotation Yrotation Xrotation
						JOINT RightForeArm
						{
							OFFSET -5.241900 -0.000000 -0.000000
							CHANNELS 3 Zrotation Yrotation Xrotation
							JOINT RightHand
							{
								OFFSET -3.444170 -0.000000 -0.000000
								CHANNELS 3 Zrotation Yrotation Xrotation
								JOINT RightFingerBase
								{
									OFFSET 0.000000 0.000000 0.000000
									CHANNELS 3 Zrotation Yrotation Xrotation
									JOINT RightHandIndex1
									{
										OFFSET -0.622530 -0.000000 -0.000000
										CHANNELS 3 Zrotation Yrotation Xrotation
										End Site
										{
											OFFSET 0.000000 0.000000 0.000000
										}
									}
								}
								JOINT RThumb
								{
									OFFSET 0.000000 0.000000 0.000000
									CHANNELS 3 Zrotation Yrotation Xrotation
									End Site
									{
										OFFSET 0.000000 0.000000 0.000000
									}
								}
							}
						}
					}
				}
			}
		}
	}
}
}
MOTION
Frames: 18
Frame Time: 0.008333
-1.136902 16.749997 1.786887 107.978229 -86.661129 -92.076301 -3.985396 -0.318767 -4.973823 -1.695244 -0.164571 -3.774078 -6.307207 -0.133180 0.471114 11.248612 -6.672754 -5.564655 -2.743989 -0.233704 0.550064 0.000000 0.000000 0.000000 0.738906 11.151059 2.763216 -52.032041 10.330585 -16.954119 -1.153434 -68.260252 -0.022459 12.895174 -2.331258 -0.283585 -0.207268 0.153579 -0.000000 0.000000 0.000000 0.000000 0.000000 0.000000 0.000000 10.814280 -0.077133 -1.237444 68.705945 29.997891 25.823771 179.800697 87.709539 -179.945951 8.244831 9.642044 0.756504 -0.181082 -0.592097 -0.000000 0.000000 0.000000 0.000000 0.000000 0.000000 0.000000 
-1.316918 16.706831 1.792522 104.550089 -86.512647 -88.880432 -4.236105 -0.352704 -4.785048 -1.760020 -0.174014 -3.749813 -6.402914 -0.138462 0.411396 11.384475 -6.709554 -5.472192 -2.747540 -0.234799 0.572337 0.000000 0.000000 0.000000 0.613821 11.254258 2.716576 -52.180018 9.542278 -16.560618 -1.189088 -67.748469 -0.022707 12.876412 -2.246836 -0.273400 -0.206443 0.153258 -0.000000 0.000000 0.000000 0.000000 0.000000 0.000000 0.000000 10.854438 -0.175671 -1.426172 69.337768 29.198303 24.506500 179.840586 87.960781 -179.949709 7.740608 9.803128 0.722076 -0.173871 -0.595809 -0.000000 0.000000 0.000000 0.000000 0.000000 0.000000 0.000000 
-1.494356 16.674575 1.796597 102.973719 -86.293078 -87.504180 -4.510286 -0.357364 -4.611838 -1.829974 -0.153027 -3.729679 -6.499238 -0.114272 0.350826 11.486572 -6.745337 -5.387110 -2.757002 -0.236225 0.592167 0.000000 0.000000 0.000000 0.451839 11.372600 2.658030 -52.394686 8.593269 -16.152171 -1.234148 -67.064314 -0.022887 12.879395 -2.178207 -0.265520 -0.205368 0.152552 -0.000000 0.000000 0.000000 0.000000 0.000000 0.000000 0.000000 10.900388 -0.275405 -1.613828 70.024959 28.286608 23.125430 179.892252 88.361645 -179.954538 7.101153 9.959462 0.672967 -0.164008 -0.598104 0.000000 0.000000 0.000000 0.000000 0.000000 0.000000 0.000000 
-1.669182 16.653803 1.799395 103.100729 -86.022246 -87.811059 -4.798017 -0.336415 -4.450937 -1.902584 -0.105982 -3.712027 -6.593552 -0.064984 0.293452 11.556877 -6.780983 -5.309511 -2.773942 -0.238094 0.609540 0.000000 0.000000 0.000000 0.258786 11.500036 2.586439 -52.691228 7.526978 -15.736225 -1.286217 -66.246502 -0.022964 12.902252 -2.137117 -0.261145 -0.204017 0.151522 -0.000000 0.000000 0.000000 0.000000 0.000000 0.000000 0.000000 10.968740 -0.378179 -1.792046 70.735820 27.304701 21.709965 179.953453 88.920235 -179.960365 6.335969 10.114231 0.609869 -0.151681 -0.598816 0.000000 0.000000 0.000000 0.000000 0.000000 0.000000 0.000000 
-1.841608 16.644565 1.801458 104.652844 -85.721274 -89.532131 -5.077190 -0.294005 -4.299283 -1.972603 -0.038753 -3.695457 -6.682511 0.003463 0.242534 11.595134 -6.814802 -5.238051 -2.798942 -0.240470 0.624947 0.000000 0.000000 0.000000 0.036466 11.631208 2.501140 -53.081518 6.392952 -15.315218 -1.342418 -65.344889 -0.022897 12.938687 -2.132998 -0.261272 -0.202383 0.150233 -0.000000 0.000000 0.000000 0.000000 0.000000 0.000000 0.000000 11.066532 -0.483178 -1.954592 71.439079 26.290335 20.287579 -179.978906 89.641159 -179.967042 5.461214 10.265331 0.533778 -0.137226 -0.597672 0.000000 0.000000 0.000000 0.000000 0.000000 0.000000 0.000000 
-2.011969 16.646534 1.803617 107.295070 -85.410206 -92.339970 -5.319412 -0.235640 -4.154429 -2.033315 0.040943 -3.679061 -6.762400 0.083233 0.199551 11.599310 -6.841083 -5.169385 -2.831462 -0.243360 0.639524 0.000000 0.000000 0.000000 -0.214876 11.759462 2.402506 -53.573807 5.244257 -14.886657 -1.399683 -64.415440 -0.022661 12.978973 -2.170874 -0.266297 -0.200495 0.148766 0.000000 0.000000 0.000000 0.000000 0.000000 0.000000 0.000000 11.190161 -0.585717 -2.097816 72.107044 25.271220 18.880427 0.091567 89.476460 0.025656 4.500249 10.405012 0.446287 -0.121163 -0.594349 -0.000000 0.000000 0.000000 0.000000 0.000000 0.000000 0.000000 
-2.180482 16.659040 1.806291 110.661878 -85.095092 -95.878699 -5.512099 -0.169934 -4.011327 -2.081166 0.123665 -3.660883 -6.829954 0.164872 0.167478 11.572791 -6.862932 -5.102306 -2.870740 -0.246719 0.653708 0.000000 0.000000 0.000000 -0.487207 11.879676 2.291143 -54.171688 4.122825 -14.441967 -1.455185 -63.511387 -0.022250 13.009477 -2.250482 -0.275920 -0.198384 0.147281 0.000000 0.000000 0.000000 0.000000 0.000000 0.000000 0.000000 11.341834 -0.691203 -2.218513 72.713405 24.282608 17.517892 0.161565 88.434248 0.018000 3.475273 10.519911 0.349290 -0.103868 -0.588532 0.000000 0.000000 0.000000 0.000000 0.000000 0.000000 0.000000 
-2.347404 16.681116 1.809870 114.397408 -84.783454 -99.797391 -5.643214 -0.106612 -3.867210 -2.112849 0.198926 -3.639714 -6.882370 0.237951 0.147623 11.518879 -6.881964 -5.034915 -2.915093 -0.250444 0.668172 0.000000 0.000000 0.000000 -0.773021 11.984731 2.168744 -54.872336 3.065554 -13.968087 -1.506443 -62.682998 -0.021696 13.014233 -2.364141 -0.289037 -0.196120 0.145957 0.000000 0.000000 0.000000 0.000000 0.000000 0.000000 0.000000 11.516227 -0.803788 -2.315584 73.238078 23.346536 16.221949 0.228102 87.240971 0.010306 2.412961 10.593791 0.245682 -0.085833 -0.579983 0.000000 0.000000 0.000000 0.000000 0.000000 0.000000 0.000000 
-2.513138 16.711657 1.814614 118.188503 -84.487637 -103.780549 -5.703614 -0.055990 -3.723456 -2.125919 0.255886 -3.615296 -6.917822 0.291768 0.140444 11.441530 -6.899670 -4.965400 -2.962336 -0.254396 0.683599 0.000000 0.000000 0.000000 -1.065587 12.066529 2.037740 -55.666362 2.099952 -13.448004 -1.551564 -61.973356 -0.021049 12.977347 -2.497351 -0.303448 -0.193797 0.144984 0.000000 0.000000 0.000000 0.000000 0.000000 0.000000 0.000000 11.704037 -0.927864 -2.389376 73.666967 22.474884 15.008595 0.288837 85.912896 0.002911 1.344793 10.610569 0.139457 -0.067632 -0.568598 0.000000 0.000000 0.000000 0.000000 0.000000 0.000000 0.000000 
-2.677893 16.749393 1.820367 121.752839 -84.217476 -107.542701 -5.697830 -0.028459 -3.579734 -2.120998 0.284769 -3.586366 -6.935788 0.316906 0.148869 11.349601 -6.924777 -4.896266 -3.010312 -0.258373 0.699330 0.000000 0.000000 0.000000 -1.353054 12.128417 1.900402 -56.538710 1.222385 -12.858547 -1.590038 -61.404265 -0.020390 12.884099 -2.633317 -0.316750 -0.191536 0.144650 0.000000 0.000000 0.000000 0.000000 0.000000 0.000000 0.000000 11.902810 -1.075143 -2.441009 73.989291 21.681423 13.893701 0.342585 84.470353 -0.003875 0.300867 10.556698 0.035314 -0.049730 -0.554434 0.000000 0.000000 0.000000 0.000000 0.000000 0.000000 0.000000 
-2.842033 16.793105 1.827075 124.915599 -83.994459 -110.897343 -5.622636 -0.031663 -3.444750 -2.097496 0.277746 -3.555856 -6.936878 0.305556 0.166689 11.246481 -6.950270 -4.822070 -3.056805 -0.262294 0.717123 0.000000 0.000000 0.000000 -1.631992 12.144330 1.761288 -57.466281 0.463414 -12.189023 -1.620253 -61.009528 -0.019787 12.721576 -2.748012 -0.325744 -0.189356 0.145074 0.000000 0.000000 0.000000 0.000000 0.000000 0.000000 0.000000 12.096449 -1.239908 -2.471382 74.203079 20.947012 12.867782 0.388714 82.946051 -0.009758 -0.678715 10.427353 -0.060848 -0.032881 -0.537813 0.000000 0.000000 0.000000 0.000000 0.000000 0.000000 0.000000 
-3.005599 16.841600 1.834237 127.530042 -83.833628 -113.689607 -5.490378 -0.071965 -3.321241 -2.058088 0.229540 -3.522961 -6.922935 0.252890 0.198134 11.143454 -6.987805 -4.749691 -3.100017 -0.265924 0.735037 0.000000 0.000000 0.000000 -1.891977 12.131113 1.622288 -58.426217 -0.221075 -11.414047 -1.643718 -60.775846 -0.019321 12.482387 -2.826333 -0.328428 -0.187344 0.146551 0.000000 0.000000 0.000000 0.000000 0.000000 0.000000 0.000000 12.286857 -1.435157 -2.482892 74.304537 20.277263 11.935526 0.427993 81.370402 -0.014540 -1.564148 10.225297 -0.144330 -0.017453 -0.519162 0.000000 0.000000 0.000000 0.000000 0.000000 0.000000 0.000000 
-3.168888 16.893802 1.841437 129.534910 -83.752335 -115.842156 -5.306613 -0.151538 -3.219632 -2.004365 0.138267 -3.491849 -6.896532 0.156879 0.234761 11.044910 -7.030306 -4.674296 -3.138938 -0.269275 0.754607 0.000000 0.000000 0.000000 -2.130750 12.056507 1.487804 -59.389738 -0.807649 -10.535399 -1.659012 -60.721099 -0.019030 12.163358 -2.849269 -0.322705 -0.185378 0.149084 -0.000000 0.000000 0.000000 0.000000 0.000000 0.000000 0.000000 12.464184 -1.653104 -2.475075 74.297468 19.644382 11.074497 0.461565 79.781802 -0.018081 -2.320496 9.965450 -0.211027 -0.003997 -0.499141 0.000000 0.000000 0.000000 0.000000 0.000000 0.000000 0.000000 
-3.331848 16.948703 1.848146 130.878821 -83.760126 -117.291140 -5.084878 -0.271315 -3.147740 -1.939539 0.003906 -3.461872 -6.861345 0.017995 0.285398 10.963197 -7.090340 -4.609290 -3.172668 -0.272103 0.772051 0.000000 0.000000 0.000000 -2.341484 11.969533 1.357941 -60.334089 -1.388740 -9.522460 -1.670124 -60.792655 -0.018940 11.770662 -2.816879 -0.309272 -0.183582 0.152921 -0.000000 0.000000 0.000000 0.000000 0.000000 0.000000 0.000000 12.638403 -1.904601 -2.452577 74.178838 19.052748 10.283136 0.491360 78.215973 -0.020377 -2.932034 9.665403 -0.259837 0.007407 -0.478338 0.000000 0.000000 0.000000 0.000000 0.000000 0.000000 0.000000 
-3.493952 17.005515 1.853914 131.540958 -83.859514 -118.026549 -4.832961 -0.425289 -3.092767 -1.865859 -0.166963 -3.436731 -6.819666 -0.157743 0.326671 10.894075 -7.154753 -4.538070 -3.201819 -0.274694 0.792044 0.000000 0.000000 0.000000 -2.522315 11.770559 1.238464 -61.235096 -1.864388 -8.429388 -1.671029 -61.040839 -0.019026 11.306768 -2.717161 -0.287536 -0.181389 0.157758 -0.000000 0.000000 0.000000 0.000000 0.000000 0.000000 0.000000 12.793924 -2.173948 -2.408385 73.964104 18.464476 9.517692 0.519297 76.697756 -0.021445 -3.373263 9.362561 -0.290157 0.016340 -0.457630 0.000000 0.000000 0.000000 0.000000 0.000000 0.000000 0.000000 
-3.655636 17.063370 1.858402 131.503496 -84.047331 -118.007202 -4.560823 -0.610652 -3.072014 -1.786035 -0.371118 -3.416197 -6.775702 -0.366582 0.373967 10.848992 -7.236572 -4.480275 -3.226369 -0.276802 0.809122 0.000000 0.000000 0.000000 -2.669305 11.544482 1.126941 -62.076832 -2.361853 -7.218953 -1.667644 -61.386975 -0.019259 10.795663 -2.571620 -0.261094 -0.179111 0.163805 0.000000 0.000000 0.000000 0.000000 0.000000 0.000000 0.000000 12.947879 -2.470386 -2.349745 73.647653 17.888083 8.780734 0.547182 75.261241 -0.021465 -3.654508 9.074970 -0.304981 0.023149 -0.437461 0.000000 0.000000 0.000000 0.000000 0.000000 0.000000 0.000000 
-3.816295 17.121588 1.861452 130.743318 -84.312115 -117.221355 -4.274481 -0.819300 -3.075818 -1.702064 -0.600047 -3.401521 -6.731841 -0.600195 0.416095 10.824859 -7.329950 -4.430656 -3.247459 -0.278596 0.824713 0.000000 0.000000 0.000000 -2.780083 11.253902 1.025173 -62.847797 -2.851507 -5.926311 -1.657444 -61.838243 -0.019583 10.256296 -2.393117 -0.232349 -0.176499 0.170906 -0.000000 0.000000 0.000000 0.000000 0.000000 0.000000 0.000000 13.096200 -2.784047 -2.274237 73.239083 17.305309 8.043642 0.576267 73.924017 -0.020619 -3.782542 8.830260 -0.307307 0.027931 -0.418398 -0.000000 0.000000 0.000000 0.000000 0.000000 0.000000 0.000000 
-3.975873 17.179528 1.863102 129.243895 -84.638305 -115.656624 -3.976775 -1.043515 -3.097251 -1.615194 -0.845843 -3.390838 -6.690202 -0.850396 0.456238 10.821113 -7.441916 -4.396765 -3.265704 -0.280027 0.836601 0.000000 0.000000 0.000000 -2.853322 10.926900 0.931711 -63.544384 -3.381068 -4.554151 -1.642116 -62.358386 -0.019964 9.715720 -2.207714 -0.204702 -0.173698 0.179116 -0.000000 0.000000 0.000000 0.000000 0.000000 0.000000 0.000000 13.243392 -3.117958 -2.184304 72.741955 16.721584 7.299117 0.607362 72.697506 -0.019147 -3.783689 8.643940 -0.300733 0.031138 -0.400733 0.000000 0.000000 0.000000 0.000000 0.000000 0.000000 0.000000 
